# xmcd
#
# Track frame offsets:
#	150
#	1593
#	19938
#	47438
#	78385
#	101696
#	133671
#	162499
#	189817
#	229239
#	257548
#	293245
#
# Disc length: 4301 seconds
#
# Revision: 0
# Processed by: cddbd v1.4PL0 Copyright (c) Steve Scherf et al.
# Submitted via: audiograbber 1.80
#
DISCID=9010cb0c
DTITLE=Bob Dylan  - The Teater At Madison Square Garden
DYEAR=1900
DGENRE=
TTITLE0=Intro
TTITLE1=Absolutely Sweet Marie
TTITLE2=Man In The Long Black Coat
TTITLE3=Cold Irons Bound
TTITLE4=Shelter From The Storm
TTITLE5=Silvio
TTITLE6=The Times They Are A-Changin'
TTITLE7=Mr. Tamburine Man
TTITLE8=Tangled Up In Blue
TTITLE9=Million Miles
TTITLE10=Stuck Inside Of Mobile With The Memphis Blues Again
TTITLE11=Till I Fell In Love With You
EXTD=
EXTT0=
EXTT1=
EXTT2=
EXTT3=
EXTT4=
EXTT5=
EXTT6=
EXTT7=
EXTT8=
EXTT9=
EXTT10=
EXTT11=
PLAYORDER=
